<svg width="308" height="345" viewBox="0 0 308 345" fill="none" xmlns="http://www.w3.org/2000/svg">
<g clip-path="url(#clip0_31_72)">
<path d="M294.914 345H13.0865C9.61693 344.996 6.29059 343.616 3.83725 341.163C1.3839 338.709 0.00389663 335.383 -7.62939e-06 331.914V13.0863C0.00389663 9.61679 1.3839 6.29051 3.83725 3.8372C6.29059 1.38389 9.61693 0.00390419 13.0865 0H294.914C298.383 0.00390269 301.709 1.38389 304.163 3.83719C306.616 6.2905 307.996 9.61679 308 13.0863V331.914C307.996 335.383 306.616 338.709 304.163 341.163C301.709 343.616 298.383 344.996 294.914 345Z" fill="#F2F2F2"/>
<path d="M280.741 22.203H27.2588C24.9013 22.2062 22.6413 23.1442 20.9743 24.8111C19.3073 26.4781 18.3694 28.7381 18.3661 31.0956V264.751C18.3694 267.108 19.3073 269.368 20.9743 271.035C22.6413 272.702 24.9013 273.64 27.2588 273.643H280.741C283.099 273.64 285.359 272.702 287.026 271.035C288.693 269.368 289.631 267.108 289.634 264.751V31.0956C289.631 28.7381 288.693 26.4781 287.026 24.8111C285.359 23.1442 283.099 22.2062 280.741 22.203Z" fill="#82D475"/>
<path d="M159.146 129.58C156.683 125.507 153.766 121.159 149.196 119.829C143.904 118.289 138.468 121.348 133.857 124.367C120.068 133.395 106.788 143.179 94.0794 153.675L94.0933 153.833C103.988 153.15 113.882 152.468 123.776 151.786C130.925 151.293 138.319 150.732 144.636 147.35C147.034 146.067 149.37 144.353 152.087 144.233C155.462 144.085 158.405 146.442 160.717 148.904C174.397 163.471 178.356 185.747 193.703 198.546C184.025 174.679 172.47 151.618 159.146 129.58Z" fill="white"/>
<path d="M243.233 253.133C241.72 251.223 241.102 250.775 239.61 248.847C227.46 233.133 216.04 216.888 205.35 200.113C198.089 188.719 191.188 177.107 184.647 165.276C181.533 159.652 178.504 153.983 175.561 148.27C173.277 143.841 171.044 139.384 168.862 134.902C168.238 133.621 167.631 132.335 167.028 131.046C165.606 128.015 164.211 124.968 162.713 121.978C161.006 118.57 158.928 114.997 155.793 112.707C154.367 111.622 152.661 110.965 150.875 110.814C148.323 110.649 145.969 111.703 143.755 112.854C127.545 121.375 112.414 131.809 98.6874 143.932C84.9393 156.006 72.6509 169.646 62.0724 184.575C61.7488 185.037 60.9835 184.596 61.3102 184.131C62.5965 182.312 63.9082 180.513 65.2454 178.733C81.873 156.619 102.261 137.602 125.477 122.552C129.383 120.021 133.362 117.608 137.415 115.314C139.458 114.158 141.509 113.016 143.596 111.944C145.642 110.894 147.814 109.949 150.151 109.913C158.104 109.79 162.222 118.796 165.05 124.856C165.939 126.764 166.839 128.665 167.749 130.56C171.19 137.757 174.763 144.887 178.469 151.952C180.756 156.314 183.093 160.65 185.48 164.961C192.908 178.386 200.804 191.538 209.167 204.419C220.246 221.481 231.236 236.553 243.857 252.509C244.205 252.95 243.584 253.58 243.233 253.133Z" fill="#E4E4E4"/>
<path d="M97.9014 139.485C97.4393 138.969 96.9801 138.454 96.5151 137.939C92.8477 133.884 88.9126 129.875 83.8765 127.55C81.4753 126.406 78.854 125.798 76.1945 125.769C73.4502 125.844 70.7446 126.434 68.2182 127.508C67.0173 127.988 65.8428 128.533 64.6862 129.112C63.3646 129.778 62.0666 130.487 60.7745 131.202C58.3492 132.544 55.9553 133.945 53.5929 135.405C48.8924 138.31 44.339 141.437 39.9329 144.785C37.6488 146.522 35.4119 148.315 33.2221 150.166C31.1854 151.884 29.1898 153.649 27.2355 155.461C26.8175 155.846 26.1935 155.222 26.6114 154.837C27.1265 154.357 27.6475 153.88 28.1685 153.409C29.6401 152.079 31.1353 150.774 32.6541 149.495C35.4237 147.158 38.265 144.911 41.1779 142.755C45.7077 139.399 50.3935 136.271 55.2351 133.371C57.6546 131.923 60.1073 130.536 62.5934 129.21C63.344 128.809 64.1034 128.418 64.8716 128.047C66.6146 127.168 68.4257 126.431 70.2873 125.843C72.9242 124.989 75.7142 124.715 78.4667 125.039C81.1244 125.426 83.685 126.311 86.0134 127.65C90.9581 130.413 94.7932 134.687 98.5254 138.858C98.9022 139.281 98.2811 139.908 97.9014 139.485Z" fill="#E4E4E4"/>
<path d="M199.217 181.514L211.066 177.18L216.949 175.028C218.85 174.263 220.788 173.595 222.757 173.028C224.478 172.536 226.306 172.559 228.014 173.095C229.537 173.659 230.932 174.523 232.114 175.637C233.322 176.749 234.446 177.95 235.477 179.228C236.758 180.767 238.02 182.323 239.288 183.873C244.519 190.271 249.716 196.696 254.88 203.15C260.043 209.603 265.171 216.084 270.265 222.592C275.371 229.116 280.443 235.667 285.479 242.246C286.096 243.052 286.712 243.858 287.328 244.665C287.668 245.11 288.436 244.671 288.09 244.219C283.017 237.574 277.908 230.957 272.764 224.367C267.608 217.76 262.415 211.182 257.187 204.632C251.96 198.082 246.696 191.561 241.398 185.068C240.078 183.45 238.756 181.834 237.431 180.22C236.314 178.859 235.21 177.482 233.984 176.215C231.735 173.889 228.925 171.833 225.561 171.777C223.584 171.745 221.67 172.372 219.832 173.037C217.851 173.754 215.875 174.484 213.897 175.207L201.965 179.571L198.982 180.662C198.453 180.856 198.682 181.709 199.217 181.514V181.514Z" fill="#E4E4E4"/>
<path d="M82.3172 132.653C79.2725 131.153 75.8834 130.49 72.4978 130.732C69.1121 130.974 65.8519 132.113 63.0516 134.031C73.6057 135.852 84.0443 138.288 94.314 141.327C90.0494 138.828 86.7135 134.912 82.3172 132.653Z" fill="white"/>
<path d="M62.9924 134.02L61.8332 134.962C62.2253 134.632 62.6329 134.323 63.0516 134.031C63.0319 134.027 63.0122 134.023 62.9924 134.02Z" fill="#F2F2F2"/>
<path d="M231.668 181.557C230.502 180.137 229.241 178.651 227.496 178.074L225.867 178.138C238.266 200.047 255.012 219.191 275.076 234.395C260.607 216.782 246.137 199.169 231.668 181.557Z" fill="white"/>
<g opacity="0.17">
<path opacity="0.17" d="M263.455 100.568C266.74 99.1359 260.079 98.3022 252.521 98.0281C244.964 97.754 235.822 97.7692 230.992 96.9895C226.321 96.2355 226.665 94.8948 226.273 93.6801C225.88 92.4653 224.084 91.2198 216.796 90.9498C207.713 90.6133 192.736 91.9085 185.88 91.1309C179.482 90.4053 183.285 88.1291 173.955 88.042C168.628 87.9922 161.765 88.7427 155.837 88.9238C151.635 89.1061 147.425 88.8866 143.265 88.2683C140.376 87.795 138.363 87.1948 135.112 86.7767C126.574 85.679 109.871 86.048 94.9632 87.4549C80.0552 88.8618 67.2763 91.1674 60.0694 93.4511C52.8625 95.7347 50.8714 97.9831 52.5501 99.8898C53.6221 101.107 56.3653 102.246 63.0195 102.735C75.4659 103.65 97.6255 102.075 110.487 102.907C117.655 103.371 120.835 104.522 127.124 105.151C133.881 105.828 143.772 105.864 153.49 105.848C173.725 105.814 194.477 105.606 215.638 105.225C224.476 105.066 233.737 104.859 243.142 104.1C252.547 103.341 262.14 101.877 264.124 100.504" fill="white"/>
</g>
<path d="M123.55 72.5387C124.491 72.5387 125.254 71.7761 125.254 70.8354C125.254 69.8947 124.491 69.1321 123.55 69.1321C122.61 69.1321 121.847 69.8947 121.847 70.8354C121.847 71.7761 122.61 72.5387 123.55 72.5387Z" fill="white"/>
<path d="M165.235 53.397C165.8 53.397 166.257 52.9394 166.257 52.375C166.257 51.8106 165.8 51.353 165.235 51.353C164.671 51.353 164.213 51.8106 164.213 52.375C164.213 52.9394 164.671 53.397 165.235 53.397Z" fill="white"/>
<path d="M108.873 116.59C109.437 116.59 109.895 116.132 109.895 115.568C109.895 115.004 109.437 114.546 108.873 114.546C108.309 114.546 107.851 115.004 107.851 115.568C107.851 116.132 108.309 116.59 108.873 116.59Z" fill="white"/>
<path d="M226.15 69.0015C226.715 69.0015 227.172 68.5439 227.172 67.9795C227.172 67.4151 226.715 66.9575 226.15 66.9575C225.586 66.9575 225.128 67.4151 225.128 67.9795C225.128 68.5439 225.586 69.0015 226.15 69.0015Z" fill="white"/>
<path d="M158.402 98.0361C158.966 98.0361 159.424 97.5786 159.424 97.0142C159.424 96.4497 158.966 95.9922 158.402 95.9922C157.837 95.9922 157.38 96.4497 157.38 97.0142C157.38 97.5786 157.837 98.0361 158.402 98.0361Z" fill="white"/>
<path d="M186.298 79.8184C186.863 79.8184 187.32 79.3608 187.32 78.7964C187.32 78.232 186.863 77.7744 186.298 77.7744C185.734 77.7744 185.276 78.232 185.276 78.7964C185.276 79.3608 185.734 79.8184 186.298 79.8184Z" fill="white"/>
<path d="M237.936 134.448C238.5 134.448 238.958 133.99 238.958 133.426C238.958 132.861 238.5 132.404 237.936 132.404C237.371 132.404 236.914 132.861 236.914 133.426C236.914 133.99 237.371 134.448 237.936 134.448Z" fill="white"/>
<path d="M42.0909 125.908C42.6554 125.908 43.1129 125.451 43.1129 124.886C43.1129 124.322 42.6554 123.864 42.0909 123.864C41.5265 123.864 41.069 124.322 41.069 124.886C41.069 125.451 41.5265 125.908 42.0909 125.908Z" fill="white"/>
<path d="M289.634 244.865V264.751C289.631 267.108 288.693 269.368 287.026 271.035C285.359 272.702 283.099 273.64 280.741 273.643H27.2588C24.9013 273.64 22.6413 272.702 20.9743 271.035C19.3073 269.368 18.3694 267.108 18.3661 264.751V239.906C31.4026 236.715 44.8075 235.283 58.2239 235.648C90.618 236.353 122.255 245.001 154.347 249.476C192.138 254.736 230.51 254.208 268.142 247.91C275.236 246.721 282.46 245.331 289.634 244.865Z" fill="#3F3D56"/>
<path d="M203.659 154.347C202.364 151.95 202.183 148.809 203.773 146.597C204.559 149.453 206.33 151.939 208.772 153.615C209.716 154.257 210.833 154.874 211.157 155.97C211.326 156.668 211.222 157.405 210.864 158.029C210.507 158.644 210.072 159.212 209.571 159.717L209.525 159.888C207.182 158.5 204.953 156.743 203.659 154.347Z" fill="#3F3D56"/>
<path d="M120.538 218.109C119.244 215.712 119.063 212.571 120.653 210.359C121.439 213.215 123.21 215.701 125.652 217.377C126.596 218.02 127.713 218.636 128.036 219.732C128.206 220.431 128.102 221.168 127.744 221.791C127.387 222.407 126.952 222.974 126.451 223.479L126.405 223.651C124.062 222.262 121.833 220.506 120.538 218.109Z" fill="#3F3D56"/>
<path d="M223.015 205.015C221.721 202.618 221.54 199.477 223.13 197.265C223.916 200.121 225.686 202.607 228.129 204.283C229.073 204.926 230.19 205.542 230.513 206.638C230.683 207.337 230.578 208.074 230.221 208.697C229.864 209.313 229.429 209.88 228.928 210.385L228.882 210.556C226.539 209.168 224.31 207.411 223.015 205.015Z" fill="#3F3D56"/>
<path d="M70.0979 66.7671C66.6053 66.7671 63.1913 65.7314 60.2873 63.7911C57.3834 61.8508 55.1201 59.093 53.7835 55.8663C52.447 52.6397 52.0973 49.0892 52.7787 45.6639C53.46 42.2385 55.1418 39.0921 57.6114 36.6225C60.081 34.153 63.2274 32.4712 66.6529 31.7899C70.0783 31.1085 73.6288 31.4582 76.8555 32.7947C80.0822 34.1312 82.84 36.3945 84.7804 39.2984C86.7207 42.2023 87.7564 45.6163 87.7564 49.1088C87.7511 53.7905 85.889 58.2788 82.5785 61.5893C79.2681 64.8997 74.7796 66.7618 70.0979 66.7671Z" fill="white"/>
<path d="M123.292 48.2034C118.694 43.38 113.354 38.9799 107.033 36.6547C105.272 36.0043 103.446 35.5455 101.587 35.2862C101.572 35.2841 101.558 35.2872 101.543 35.286C101.513 35.2782 101.482 35.2721 101.451 35.2679C98.8506 34.9367 96.2113 35.096 93.6697 35.7377C92.4268 36.0496 91.2143 36.472 90.0467 36.9998C88.8749 37.5714 87.7395 38.2149 86.6471 38.9264C84.3346 40.3106 81.7886 41.2604 79.1346 41.7289C77.8025 41.9688 76.4532 42.1012 75.0998 42.1249C73.9483 42.0859 72.7991 42.2513 71.7054 42.6135C70.5169 43.0604 69.4493 43.779 68.5879 44.7117C67.7264 45.6445 67.0948 46.7657 66.7437 47.9859C66.7166 48.0946 66.7247 48.209 66.7669 48.3127C66.8092 48.4165 66.8832 48.5041 66.9785 48.563C67.2794 48.7785 67.5729 49.0231 67.8891 49.2151C68.1704 49.3439 68.4708 49.4258 68.7785 49.4577C69.2813 49.5638 69.7847 49.6668 70.2887 49.7666C72.1455 50.1345 74.01 50.4602 75.8822 50.7436C79.6707 51.3171 83.4795 51.7211 87.3089 51.9555C94.9801 52.4202 102.678 52.1888 110.307 51.2643C114.595 50.745 118.854 50.0084 123.067 49.0574C123.152 49.0325 123.23 48.9859 123.292 48.9223C123.354 48.8586 123.398 48.78 123.421 48.6941C123.444 48.6081 123.444 48.5178 123.421 48.4318C123.399 48.3459 123.354 48.2672 123.292 48.2034Z" fill="#F0F0F0"/>
<path d="M70.9223 59.8195C69.1614 59.1691 67.3356 58.7102 65.4764 58.451C65.4614 58.4489 65.4473 58.452 65.4324 58.4507C65.4021 58.443 65.3715 58.4369 65.3405 58.4327C62.7402 58.1015 60.1009 58.2608 57.5593 58.9025C56.3164 59.2144 55.1039 59.6367 53.9363 60.1646C52.7645 60.7362 51.6291 61.3797 50.5366 62.0912C48.2242 63.4754 45.6782 64.4252 43.0242 64.8937C41.692 65.1336 40.3428 65.266 38.9894 65.2898C37.8379 65.2507 36.6887 65.4161 35.595 65.7783C34.4065 66.2253 33.3389 66.9438 32.4774 67.8765C31.616 68.8093 30.9844 69.9305 30.6333 71.1507C30.6062 71.2594 30.6143 71.3738 30.6566 71.4776C30.6988 71.5813 30.7728 71.6689 30.8681 71.7278C31.1691 71.9433 31.4625 72.1879 31.7787 72.3799C32.06 72.5087 32.3604 72.5906 32.6681 72.6225C33.1709 72.7286 33.6743 72.8316 34.1783 72.9315C36.0351 73.2994 37.8996 73.625 39.7718 73.9084C43.5603 74.4819 47.3691 74.8859 51.1985 75.1204C58.8697 75.585 66.5673 75.3537 74.1968 74.4292C78.4846 73.9098 82.7433 73.1733 86.9565 72.2223C87.0418 72.1973 87.1192 72.1508 87.1812 72.0871C87.2433 72.0234 87.2877 71.9448 87.3104 71.8589C87.3331 71.773 87.3332 71.6826 87.3107 71.5967C87.2882 71.5107 87.2439 71.432 87.182 71.3682C82.584 66.5448 77.244 62.1447 70.9223 59.8195Z" fill="#F0F0F0"/>
<path d="M149.73 304.579H21.634C20.7281 304.579 19.8592 304.219 19.2186 303.579C18.578 302.938 18.2181 302.069 18.2181 301.163C18.2181 300.257 18.578 299.389 19.2186 298.748C19.8592 298.107 20.7281 297.748 21.634 297.748H149.73C150.636 297.748 151.505 298.107 152.146 298.748C152.786 299.389 153.146 300.257 153.146 301.163C153.146 302.069 152.786 302.938 152.146 303.579C151.505 304.219 150.636 304.579 149.73 304.579Z" fill="#CCCCCC"/>
<path d="M85.3974 323.651H21.634C20.7281 323.651 19.8592 323.291 19.2186 322.651C18.578 322.01 18.2181 321.141 18.2181 320.235C18.2181 319.329 18.578 318.46 19.2186 317.82C19.8592 317.179 20.7281 316.819 21.634 316.819H85.3974C86.3034 316.819 87.1722 317.179 87.8128 317.82C88.4534 318.46 88.8133 319.329 88.8133 320.235C88.8133 321.141 88.4534 322.01 87.8128 322.651C87.1722 323.291 86.3034 323.651 85.3974 323.651Z" fill="#CCCCCC"/>
<path d="M61.1303 218.635L70.9243 211.2L75.698 215.973L59.7429 226.892L61.1303 218.635Z" fill="#2F2E41"/>
<path d="M51.9955 239.11H18.492L19.6671 235.303C26.9499 232.666 22.8592 226.999 29.7868 223.536C46.7314 215.063 53.2914 189.782 50.8101 179.788L61.9143 179.318C61.9143 179.318 77.2492 222.866 51.9955 239.11Z" fill="#2F2E41"/>
<path d="M80.5979 221.213C79.5971 222.093 78.3168 222.589 76.9844 222.614C75.652 222.639 74.354 222.191 73.321 221.349L73.2992 221.331L73.2985 221.303C73.2862 220.837 73.2135 220.374 73.0822 219.926C73.0756 220.248 73.0286 220.569 72.9422 220.879L72.9142 220.984L72.8389 220.906C72.7739 220.839 72.711 220.771 72.6519 220.704C72.3044 220.309 72.0133 219.869 71.787 219.394C70.7036 217.166 69.1339 215.209 67.1936 213.669C66.8472 213.387 66.5248 213.077 66.2299 212.742C64.9841 211.324 64.2836 209.51 64.2537 207.623C64.2238 205.736 64.8665 203.9 66.0667 202.444C67.267 200.988 68.9464 200.007 70.8042 199.676C72.6621 199.345 74.577 199.686 76.2062 200.638L76.2558 200.667L76.23 200.719C76.0414 201.11 75.7922 201.47 75.4917 201.784C75.9048 201.561 76.2871 201.284 76.6288 200.962L76.6649 200.928L76.7058 200.956C77.2409 201.327 77.7288 201.761 78.1585 202.25L78.2049 202.303C78.5329 202.678 78.9363 202.98 79.3888 203.189C79.8413 203.397 80.3327 203.508 80.831 203.515C81.644 203.528 82.4444 203.718 83.1772 204.07C83.9099 204.423 84.5576 204.93 85.0756 205.557C85.5936 206.184 85.9697 206.915 86.1781 207.701C86.3864 208.487 86.4219 209.309 86.2823 210.11L86.2759 210.147L86.2397 210.158C85.6079 210.375 84.938 210.459 84.2723 210.404C84.8282 210.646 85.4203 210.794 86.0247 210.843L86.1028 210.849L86.078 210.923C85.7632 211.868 85.2028 212.713 84.4543 213.371L84.433 213.39L84.4103 213.41C83.8525 213.89 83.3963 214.477 83.0683 215.136C82.7404 215.795 82.5473 216.512 82.5005 217.247C82.4634 218.001 82.276 218.741 81.9492 219.422C81.6225 220.103 81.1631 220.712 80.5979 221.213Z" fill="#3F3D56"/>
<path opacity="0.15" d="M81.6227 219.403C81.6126 219.606 81.5914 219.808 81.5594 220.008C82.1081 219.166 82.4238 218.193 82.4744 217.189C82.4818 217.035 82.498 216.882 82.5196 216.729C81.9865 217.524 81.6768 218.448 81.6227 219.403Z" fill="black"/>
<path opacity="0.15" d="M83.3945 212.56C83.8417 212.754 84.3126 212.887 84.795 212.956C84.9808 212.76 85.1523 212.55 85.3081 212.33C84.6925 212.536 84.0414 212.614 83.3945 212.56Z" fill="black"/>
<path opacity="0.15" d="M85.4583 210.711C85.5081 211.198 85.4947 211.689 85.4183 212.172C85.6853 211.766 85.8984 211.326 86.052 210.865L86.0767 210.791L85.9987 210.784C85.8174 210.769 85.6371 210.744 85.4583 210.711Z" fill="black"/>
<path opacity="0.15" d="M84.9374 205.367C84.419 204.779 83.7839 204.306 83.0724 203.977C82.3609 203.648 81.5887 203.471 80.8049 203.457C80.3066 203.45 79.8152 203.339 79.3627 203.131C78.9102 202.922 78.5068 202.62 78.1788 202.245L78.1325 202.192C77.7028 201.703 77.2149 201.269 76.6797 200.898L76.6388 200.87L76.6027 200.904C76.261 201.226 75.8788 201.503 75.4656 201.726C75.7661 201.412 76.0153 201.052 76.204 200.661L76.2297 200.609L76.1801 200.58C75.1001 199.948 73.8859 199.581 72.6366 199.507C71.3874 199.433 70.1384 199.656 68.9917 200.157C67.8449 200.658 66.8329 201.424 66.0382 202.39C65.2434 203.357 64.6885 204.498 64.4186 205.72C64.9384 204.807 65.6342 204.006 66.4657 203.364C67.2972 202.722 68.2479 202.251 69.2626 201.979C70.2774 201.707 71.3361 201.639 72.3773 201.779C73.4185 201.919 74.4216 202.264 75.3284 202.795L75.378 202.824L75.3523 202.875C75.1636 203.267 74.9144 203.626 74.6139 203.94C75.0271 203.717 75.4093 203.441 75.751 203.119L75.7871 203.085L75.828 203.113C76.3632 203.483 76.8511 203.917 77.2808 204.406L77.3271 204.459C77.6551 204.834 78.0585 205.136 78.511 205.345C78.9635 205.554 79.4549 205.665 79.9532 205.671C81.2562 205.693 82.5112 206.166 83.5042 207.01C84.4972 207.854 85.1668 209.016 85.3987 210.298C85.6742 210.249 85.9463 210.183 86.2136 210.1L86.2498 210.089L86.2562 210.052C86.4024 209.222 86.3598 208.37 86.1314 207.559C85.9031 206.748 85.495 205.999 84.9374 205.367Z" fill="black"/>
<path d="M96.791 182.185C96.7906 186.476 95.2685 190.627 92.4954 193.902C89.7223 197.176 85.8778 199.361 81.6455 200.068L81.5559 200.082L81.4866 200.024C80.3328 199.062 79.0591 198.254 77.6973 197.619C78.4625 198.32 79.1367 199.115 79.7042 199.984L79.8972 200.274L79.5493 200.291C79.249 200.306 78.9507 200.313 78.6627 200.313C76.9699 200.315 75.2851 200.081 73.6567 199.619C65.9656 197.5 57.897 197.135 50.0459 198.549C48.628 198.788 47.1926 198.907 45.7548 198.907C39.6787 198.905 33.8016 196.74 29.1762 192.8C24.5507 188.86 21.4788 183.402 20.5106 177.404C19.5424 171.405 20.7411 165.258 23.892 160.063C27.0429 154.867 31.9403 150.963 37.7073 149.05L37.8831 148.991L37.9525 149.163C38.4981 150.452 38.8372 151.819 38.9573 153.213C39.2963 151.739 39.4415 150.228 39.3892 148.717L39.3837 148.557L39.5388 148.518C41.5719 148.011 43.6595 147.755 45.7548 147.756L45.9817 147.757C47.5863 147.761 49.1739 147.428 50.641 146.778C52.1081 146.128 53.4218 145.176 54.4964 143.985C56.2584 142.048 58.419 140.516 60.8296 139.494C63.2402 138.473 65.8435 137.985 68.4605 138.065C71.0775 138.146 73.646 138.792 75.9894 139.96C78.3327 141.128 80.3953 142.789 82.0351 144.83L82.1115 144.925L82.061 145.036C81.2421 147.025 80.0195 148.822 78.4705 150.315C80.2381 149.485 81.856 148.369 83.2585 147.011L83.4396 146.835L83.5666 147.053C85.1828 149.825 86.0338 152.976 86.0326 156.185L86.0324 156.276C86.0321 156.309 86.0321 156.341 86.0321 156.374C86.0072 158.743 86.4557 161.094 87.3514 163.288C88.2471 165.482 89.5719 167.476 91.2481 169.151C92.9933 170.845 94.3826 172.871 95.3344 175.109C96.2862 177.347 96.7814 179.753 96.791 182.185Z" fill="#3F3D56"/>
<g opacity="0.15">
<path opacity="0.15" d="M74.628 139.344C74.0029 140.381 73.2339 141.325 72.3439 142.146C73.6183 141.548 74.8164 140.799 75.9126 139.915C75.4921 139.708 75.0639 139.518 74.628 139.344Z" fill="black"/>
<path opacity="0.15" d="M85.1214 160.982C86.1074 161.939 86.9819 163.004 87.7281 164.158C86.6051 161.717 86.0264 159.061 86.0321 156.374C86.0321 156.341 86.0321 156.309 86.0323 156.276L86.0326 156.185C86.0338 152.977 85.1828 149.825 83.5666 147.053L83.4395 146.835L83.2585 147.011C82.259 147.977 81.1492 148.822 79.9521 149.529C80.2124 153.851 82.0521 157.927 85.1214 160.982Z" fill="black"/>
<path opacity="0.15" d="M79.9059 148.016L79.9057 148.108C79.9054 148.14 79.9054 148.173 79.9054 148.205C79.9054 148.383 79.9086 148.56 79.9136 148.738C80.7674 147.589 81.4878 146.347 82.061 145.036L82.1114 144.925L82.0351 144.83C81.0787 143.64 79.9769 142.575 78.7555 141.659C79.516 143.692 79.9056 145.845 79.9059 148.016Z" fill="black"/>
<path opacity="0.15" d="M91.2481 169.151C90.376 168.303 89.601 167.36 88.9376 166.34C90.1257 168.871 90.7116 171.643 90.6492 174.439C90.5869 177.234 89.878 179.977 88.5782 182.453C87.2784 184.929 85.4229 187.07 83.1572 188.709C80.8915 190.348 78.2771 191.439 75.5188 191.899L75.4292 191.913L75.3599 191.856C74.2061 190.893 72.9324 190.085 71.5705 189.45C72.3358 190.152 73.01 190.946 73.5774 191.816L73.7705 192.106L73.4226 192.122C73.1223 192.137 72.824 192.144 72.5359 192.144C70.8432 192.146 69.1584 191.912 67.53 191.45C59.8389 189.331 51.7703 188.966 43.9192 190.381C42.5013 190.619 41.066 190.739 39.6281 190.739C33.3608 190.743 27.3118 188.437 22.6391 184.26C24.7118 188.638 27.9841 192.338 32.0758 194.931C36.1675 197.524 40.9108 198.903 45.7548 198.907C47.1926 198.907 48.6279 198.788 50.0459 198.549C57.897 197.135 65.9656 197.5 73.6566 199.619C75.2851 200.081 76.9699 200.315 78.6626 200.313C78.9506 200.313 79.249 200.306 79.5493 200.291L79.8971 200.275L79.7041 199.984C79.1367 199.115 78.4625 198.32 77.6972 197.619C79.059 198.254 80.3328 199.062 81.4866 200.024L81.5559 200.082L81.6454 200.068C84.9576 199.517 88.0515 198.056 90.5819 195.849C93.1123 193.642 94.9796 190.775 95.9756 187.569C96.9715 184.362 97.0569 180.942 96.2221 177.69C95.3873 174.438 93.6653 171.481 91.2481 169.151H91.2481Z" fill="black"/>
</g>
</g>
<defs>
<clipPath id="clip0_31_72">
<rect width="308" height="345" fill="white"/>
</clipPath>
</defs>
</svg>
